<svg xmlns="http://www.w3.org/2000/svg" width="755.71" height="131.29" viewBox="0 0 755.71 131.29"><path d="M61.09,66H77.94V59.72H58.51L48.33,69.9v7.89H41.49v6.26h6.84v4.63H41.49v6.26h6.84v7.89L58.51,113H77.94v-6.26H61.09l-6.5-6.51v-5.3H71.52V88.68H54.59V84.05H71.52V77.79H54.59v-5.3Z" fill="#229d56"></path><path d="M108.15,101.73H95.89V95.47h6V63.73L62.56,24.94,23.27,63.73V95.47h6v6.26H17V61.1l45.55-45,45.59,45Z" fill="#464747"></path><path d="M120.78,66.14,62.58,8.8,4.38,66.14,0,61.68,62.58,0l62.58,61.68Z" fill="#464747"></path><path d="M120.65,106.76h-37V113h37Z" fill="#464747"></path><path d="M4.86,106.76V113H51l-6.28-6.25Z" fill="#464747"></path><path d="M168,93c0,11.19,3.78,15.2,14.89,15.2h.68a55.53,55.53,0,0,0,10.51-1V87.9c0-.83,2.49-1.29,4.91-1.29,1.36,0,1.82.83,1.82,2.35v20.41c0,1.73-.38,2.11-1.36,2.49-2.88,1.13-10.13,2.34-15.88,2.34h-.68c-14.74,0-21.84-5.06-21.84-20.33V78.37C161,63.1,168.07,58,182.5,58H184c8.69,0,17,.83,17,2.64,0,2-.75,4.84-1.89,4.77a61.63,61.63,0,0,0-14.21-1.36h-1.59c-11.64,0-15.34,4-15.34,15.19Z" fill="#229d56"></path><path d="M224.83,78.15c-4.53,0-8.76,1.66-8.76,2.26v32a1.63,1.63,0,0,1-1.82,1.81c-1.36,0-4.46-.3-4.46-1.21V77.77c0-2.57,6.2-5.29,14.74-5.29a36.81,36.81,0,0,1,5.29.45c1.21.23,1.67.6,1.67,1.59,0,3-.68,4.31-1.52,4.23A25.38,25.38,0,0,0,224.83,78.15Z" fill="#229d56"></path><path d="M261.27,73.69c0-.91,3.1-1.21,4.53-1.21a1.63,1.63,0,0,1,1.82,1.81v35.15c0,1.59-.53,2-1.51,2.34a44.84,44.84,0,0,1-14.67,2.42c-11.87,0-13.83-5.29-13.83-13.45V73.69c0-.91,3-1.21,4.46-1.21A1.68,1.68,0,0,1,244,74.29V100.6c0,5.44,1.43,8.24,7.71,8.24,4.08,0,9.6-1.14,9.6-1.52Z" fill="#229d56"></path><path d="M300.8,85c0-4.76-1-6.65-5.82-6.65s-11.49,2.19-11.49,3.32v30.77a1.65,1.65,0,0,1-1.81,1.81c-1.44,0-4.54-.3-4.54-1.21V78.83c0-2.65,9.45-6.35,19-6.35,8.92,0,11,3.47,11,12.62v27.29a1.68,1.68,0,0,1-1.89,1.81c-1.43,0-4.46-.3-4.46-1.21Z" fill="#229d56"></path><path d="M345.7,109.06c0,1.59-.15,2.12-1.43,2.8-2.35,1.13-9.3,2.34-14.14,2.34-12.77,0-14.06-6.8-14.06-13.91V86.69c0-6.58,1.59-14.21,12.17-14.21a32.7,32.7,0,0,1,11.11,2.26V57.81c0-1.06,3.33-1.21,4.54-1.21s1.81.53,1.81,2.19Zm-6.35-28.65a22.24,22.24,0,0,0-9.29-2.19c-7.19,0-7.64,4.69-7.64,9.53V99.31c0,5.37.45,9.53,8.17,9.53,3.4,0,8.08-.76,8.76-1.36Z" fill="#229d56"></path><path d="M365.58,108.91c6,0,8.7-1.59,8.7-5.44,0-9.3-20-7-20-20.56,0-7.79,5.45-10.43,14.37-10.43a61.92,61.92,0,0,1,9.82.6c1.14.15,1.29.53,1.29,1.51,0,2-.53,3.93-1.74,3.86a75.69,75.69,0,0,0-8.69-.61c-5.37,0-8.7,1.21-8.7,4.84,0,8.39,20,6.43,20,20.64,0,7.78-4.76,10.88-14.82,10.88a41,41,0,0,1-11.56-1.43c-1.14-.38-1.29-.68-1.06-1.74.53-3.4,1.06-3.78,2-3.55A36.36,36.36,0,0,0,365.58,108.91Z" fill="#229d56"></path><path d="M397.48,78.75V103c0,3.85,1.29,5.82,4.69,5.82a15.94,15.94,0,0,0,3.93-.61c1.13,0,1.51.83,1.51,3.93.08.53-.45,1.06-1.43,1.36a23,23,0,0,1-5.82.68c-5.6,0-9.3-2.26-9.3-10.43v-25h-4.84c-1,0-1.36-.53-1.36-1.51,0-1.36.23-3.86,1.59-3.86h4.61V64.31c0-.9,3.17-1.21,4.68-1.21a1.71,1.71,0,0,1,1.74,1.74v8.54h8.32c1.06,0,1.36.53,1.36,1.52,0,1.28-.23,3.85-1.59,3.85Z" fill="#229d56"></path><path d="M429.46,114.2c-12.4,0-16.56-5.21-16.56-18.37V86.16c0-9.83,5-13.68,14.82-13.68h1c10.81,0,14.36,3.78,14.36,11.41V85.7c0,9.61-2.87,11.8-24,11.8,0,8.16,2.95,11.34,11.72,11.34a66,66,0,0,0,10.43-1.14c1-.07,1.36.23,1.44,3.1.15,1.44-.23,1.82-1.06,2A55.44,55.44,0,0,1,429.46,114.2Zm7.41-30.38c0-4.69-2.42-6.43-8.7-6.43-5.74,0-9.07,1.74-9.07,8.09v7.1c15.42,0,17.77-1.21,17.77-7.25Z" fill="#229d56"></path><path d="M475.42,73.69c0-.91,3.1-1.21,4.53-1.21a1.63,1.63,0,0,1,1.82,1.81v35.15c0,1.59-.53,2-1.52,2.34a44.72,44.72,0,0,1-14.66,2.42c-11.87,0-13.83-5.29-13.83-13.45V73.69c0-.91,3-1.21,4.46-1.21a1.68,1.68,0,0,1,1.89,1.81V100.6c0,5.44,1.43,8.24,7.71,8.24,4.08,0,9.6-1.14,9.6-1.52Z" fill="#229d56"></path><path d="M507.16,114.2c-12.39,0-16.55-5.21-16.55-18.37V86.16c0-9.83,5-13.68,14.82-13.68h1c10.81,0,14.36,3.78,14.36,11.41V85.7c0,9.61-2.87,11.8-24,11.8,0,8.16,2.95,11.34,11.71,11.34A66.1,66.1,0,0,0,519,107.7c1-.07,1.36.23,1.43,3.1.15,1.44-.22,1.82-1,2A55.53,55.53,0,0,1,507.16,114.2Zm7.41-30.38c0-4.69-2.42-6.43-8.69-6.43-5.75,0-9.07,1.74-9.07,8.09v7.1c15.42,0,17.76-1.21,17.76-7.25Z" fill="#229d56"></path><path d="M544.51,78.15c-4.54,0-8.77,1.66-8.77,2.26v32a1.63,1.63,0,0,1-1.82,1.81c-1.36,0-4.46-.3-4.46-1.21V77.77c0-2.57,6.2-5.29,14.74-5.29a36.94,36.94,0,0,1,5.3.45c1.2.23,1.66.6,1.66,1.59,0,3-.68,4.31-1.51,4.23A25.56,25.56,0,0,0,544.51,78.15Z" fill="#229d56"></path><path d="M575.8,58.87c15.5,0,22.75,5.14,22.75,20.41V93c0,15.27-7.25,20.34-22.75,20.34H561c-2,0-3.25-.16-3.25-1.36V60.84c0-1.74,1-2,2.35-2Zm-11.26,6.05v42.33H575.8c11.79,0,15.8-4.08,15.8-15.2V80.11c0-11.11-4-15.19-15.8-15.19Z" fill="#464747"></path><path d="M606.57,58.26c0-.9,3.09-1.28,4.61-1.28a1.77,1.77,0,0,1,2,2v4.61a1.83,1.83,0,0,1-2,2c-1.44,0-4.53-.45-4.53-1.36ZM622,111.56c.07,1.06-.31,1.51-1.44,1.81a16.82,16.82,0,0,1-5.22.83c-5.67,0-8.69-2.87-8.69-10.28V73.69c0-1.06,3.33-1.14,4.54-1.14A1.61,1.61,0,0,1,613,74.29v28.65c0,3.33.68,5.29,3.93,5.29a23.41,23.41,0,0,0,3.55-.45C621.38,107.7,621.91,110.5,622,111.56Z" fill="#464747"></path><path d="M648,115.41v-4.84a24.76,24.76,0,0,1-12.47,3.63c-8.92,0-10.74-4.91-10.74-14V86.39c0-9.08,3.41-13.91,11.87-13.91,5.6,0,17.77,1.89,17.77,6.5v36.36c0,11.18-3.18,15.95-16.18,15.95a60.25,60.25,0,0,1-12.17-1.06c-1.29-.23-1.44-.91-1.44-1.89,0-1.51.53-3.55,1.59-3.55a67.78,67.78,0,0,0,11,1.13C646.55,125.92,648,123,648,115.41Zm0-34.69c0-1.29-5.29-2.88-10.88-2.88-3.94,0-6,3.1-6,8.09v14.52c0,6.27,2.27,8.23,6,8.23,5.21,0,9.9-2.11,10.88-3.47Z" fill="#464747"></path><path d="M662.88,58.26c0-.9,3.1-1.28,4.61-1.28a1.78,1.78,0,0,1,2,2v4.61a1.84,1.84,0,0,1-2,2c-1.44,0-4.54-.45-4.54-1.36Zm15.42,53.3c.08,1.06-.3,1.51-1.43,1.81a16.87,16.87,0,0,1-5.22.83c-5.67,0-8.69-2.87-8.69-10.28V73.69c0-1.06,3.32-1.14,4.53-1.14a1.62,1.62,0,0,1,1.82,1.74v28.65c0,3.33.68,5.29,3.93,5.29a23.73,23.73,0,0,0,3.55-.45C677.7,107.7,678.23,110.5,678.3,111.56Z" fill="#464747"></path><path d="M689.19,78.75V103c0,3.85,1.28,5.82,4.68,5.82a16.1,16.1,0,0,0,3.94-.61c1.13,0,1.51.83,1.51,3.93.07.53-.46,1.06-1.44,1.36a23,23,0,0,1-5.82.68c-5.59,0-9.3-2.26-9.3-10.43v-25h-4.84c-1,0-1.36-.53-1.36-1.51,0-1.36.23-3.86,1.59-3.86h4.61V64.31c0-.9,3.18-1.21,4.69-1.21a1.72,1.72,0,0,1,1.74,1.74v8.54h8.31c1.06,0,1.36.53,1.36,1.52,0,1.28-.22,3.85-1.58,3.85Z" fill="#464747"></path><path d="M732.2,110.35c0,1.43-6.8,3.85-15.42,3.85-10,0-14.14-3.17-14.14-12.17,0-8.69,4.08-11.94,12.32-11.94a39.28,39.28,0,0,1,11,1.74V85.18c0-4.92-2.27-7.34-9.52-7.34a62.61,62.61,0,0,0-10.13,1.06c-1.21,0-1.51-2.49-1.59-3.48-.08-1.2.23-1.51.68-1.66a54,54,0,0,1,12.25-1.28c9.75,0,14.51,2.57,14.51,12.54ZM726,96.74c-.53-.75-6.2-1.81-9.67-1.81-5,0-7.49,1.89-7.49,7.25s2.5,7.19,8.09,7.19c3.78,0,8.47-.91,9.07-1.67Z" fill="#464747"></path><path d="M755.71,111.56c0,1.06-.38,1.51-1.44,1.81a16.76,16.76,0,0,1-5.21.83c-5.67,0-8.77-2.87-8.77-10.28V57.74c0-1,3.4-1.14,4.61-1.14a1.61,1.61,0,0,1,1.81,1.74v44.6c0,3.33.68,5.29,3.93,5.29a25,25,0,0,0,3.56-.45C755.1,107.7,755.63,110.5,755.71,111.56Z" fill="#464747"></path></svg>