<svg version="1.1" id="Ebene_1" xmlns="http://www.w3.org/2000/svg" xmlns:xlink="http://www.w3.org/1999/xlink" x="0px" y="0px"
	 viewBox="0 0 320.4 64.4" style="enable-background:new 0 0 320.4 64.4;" xml:space="preserve">
<path d="M148.5,25.2h-5.4L126.6,2.5h-0.1v22.7h-3.3v-25h5.5l16.4,22.9h0.1V0.2h3.3V25.2z M159.9,19.9l-2.3,5.3h-3.5l10.7-25h4.7
	l11,25H177l-2.3-5.3C174.7,19.9,159.9,19.9,159.9,19.9z M167.3,2.5l-6.5,15.1h13L167.3,2.5z M209.5,0.2v18c0,6.7-4.7,7.2-11.6,7.2
	c-6.4,0-11.6-0.1-11.6-7.2v-18h3.3v18c0,4.1,1.1,4.7,8.3,4.7c5.9,0,8.3,0,8.3-4.7v-18C206.2,0.2,209.5,0.2,209.5,0.2z M216.4,7.3
	c0-6.7,3.6-7.3,10.8-7.3c6.3,0,10.9,0.2,10.6,7h-3.3c-0.2-4.4-1.1-4.5-7.4-4.5c-6.5,0-7.4,0.7-7.4,4.2c0,4.8,2.7,4.4,8.1,4.5
	c7,0.3,10.5,0.2,10.5,6.9c0,7.1-3.9,7.3-11.3,7.3c-7.5,0-11.3-0.8-10.7-8h3.3c-0.1,5.5,1.2,5.5,7.4,5.5c6.3,0,8,0,8-4.9
	c0-4.8-2.5-4-7.9-4.3C221.4,13.3,216.4,13.9,216.4,7.3z M255.3,25.2H252V2.7h-9.5V0.2h22.3v2.5h-9.5L255.3,25.2L255.3,25.2z"/>
<path d="M147,59.2h-3.3V47.7h-17.2v11.5h-3.3v-25h3.3v11h17.2v-11h3.3V59.2z M178.5,34.2v18c0,6.7-4.7,7.2-11.6,7.2
	c-6.4,0-11.6-0.1-11.6-7.2v-18h3.3v18c0,4.1,1.1,4.7,8.3,4.7c5.9,0,8.3,0,8.3-4.7v-18H178.5z M212,59.2h-5.4l-16.5-22.7H190v22.7
	h-3.3v-25h5.5L208.6,57h0.1V34.2h3.3L212,59.2L212,59.2z M222.3,45.2h14.9v2.3h-14.9v9.2h15.5v2.5H219v-25h18.8v2.5h-15.5V45.2z
	 M252.3,59.4c-5.4,0-8.5-2.9-8.5-7.9v-9.7c0-7.1,5.1-7.9,12.2-7.9h2.7c6.1,0,8,2.3,8,7.2V42h-3.3v-0.7c0-3.5-0.9-4.8-5.2-4.8h-1.9
	c-6.9,0-9.3,0.7-9.3,5.3v6.9c0,5.7,0.3,8.3,5.8,8.3h3.9c5.3,0,7-0.6,7-4.2v-2h3.3V53c0,5.7-4.3,6.4-10.2,6.4H252.3z M276.8,45.1h2.9
	l12-10.9h4.3l-13.4,12.1l15,12.9h-4.5l-13.4-11.6h-2.9v11.6h-3.3v-25h3.3V45.1z M304.8,45.2h14.9v2.3h-14.9v9.2h15.5v2.5h-18.8v-25
	h18.8v2.5h-15.5V45.2z"/>
<polygon points="105.4,59.2 101,59.2 101,31.4 62.6,31.4 62.6,59.2 58.3,59.2 58.3,0.2 62.6,0.2 62.6,27.2 101,27.2 101,0.2 
	105.4,0.2 "/>
<polygon points="49.3,59.2 49.3,0.2 45,0.2 45,51.4 3.8,0.2 0,0.2 0,59.2 4.4,59.2 4.4,8.2 45.7,59.2 "/>
</svg>
